<svg width="234" height="234" viewBox="0 0 234 234" fill="none" xmlns="http://www.w3.org/2000/svg">
<circle cx="117" cy="117" r="113.5" fill="white" stroke="#093270" stroke-width="7"/>
<path d="M60.3086 117.155L77.9704 109.428V89.5586L97.8399 100.597L115.502 92.8702L77.9704 70.793L60.3086 79.6239V117.155Z" fill="#093270"/>
<path d="M174.001 79.6216L158.547 71.8945L138.677 82.9331L151.924 89.5563L59.1992 132.607V154.684L73.5494 161.307L94.5228 152.476L81.2764 144.749L174.001 102.803V79.6216Z" fill="#093270"/>
<path d="M173.998 152.478V117.154L157.44 123.777V143.647L136.466 133.712L118.805 143.647L157.44 162.413L173.998 152.478Z" fill="#093270"/>
<path d="M117.708 163.517L107.773 159.102L89.0078 167.932L117.708 183.387L146.409 167.932L129.851 159.102L117.708 163.517Z" fill="#093270"/>
<path d="M117.708 50.9219L89.0078 65.2721L106.67 76.3107L117.708 70.7914L126.539 76.3107L146.409 67.4798L117.708 50.9219Z" fill="#093270"/>
</svg>
